<?xml version="1.0" encoding="UTF-8"?>
<svg width="120px" height="120px" viewBox="0 0 120 120" version="1.1" xmlns="http://www.w3.org/2000/svg" xmlns:xlink="http://www.w3.org/1999/xlink">
    <title>illustration_search</title>
    <defs>
        <linearGradient x1="75.5503325%" y1="50.0116854%" x2="21.7467098%" y2="50.084497%" id="linearGradient-1">
            <stop stop-color="#605D5A" offset="0%"></stop>
            <stop stop-color="#605D5A" offset="100%"></stop>
        </linearGradient>
    </defs>
    <g id="illustration_search" stroke="none" stroke-width="1" fill="none" fill-rule="evenodd">
        <g id="Search-/-Basic-/-General-/-Dark-">
            <g id="Search-Generic-Color" transform="translate(7.500000, 6.750000)">
                <circle id="Oval" fill="#33312D" fill-rule="nonzero" cx="13.2825" cy="13.755" r="13.08"></circle>
                <circle id="Oval" fill="#797673" fill-rule="nonzero" cx="40.95" cy="40.725" r="26.55"></circle>
                <path d="M15.5775,32.9025 C20.5795938,35.2577021 26.5228007,34.2072851 30.4145414,30.2801649 C34.3062822,26.3530447 35.3028725,20.4005754 32.9025,15.42 C24.6161285,18.0638055 18.146209,24.5925424 15.5775,32.9025 L15.5775,32.9025 Z" id="Path" fill="#B2AEAA" fill-rule="nonzero"></path>
                <path d="M69.945,23.685 C60.2940906,7.74888153 39.5556274,2.64717347 23.6129277,12.2872072 C7.67022799,21.9272409 2.55437099,42.6622183 12.1835246,58.6114919 C21.8126781,74.5607654 42.5441601,79.6907689 58.5,70.0725 C66.1762145,65.4452352 71.6965464,57.9545943 73.8435742,49.2525187 C75.9906021,40.5504431 74.5879678,31.3517267 69.945,23.685 Z M53.385,61.56 C42.1308497,68.3542141 27.5006182,64.7537007 20.685,53.5125 C13.9347136,42.2517045 17.5271258,27.6543909 28.7325,20.8125 C34.1344394,17.5373644 40.6171989,16.5452369 46.7514038,18.0548703 C52.8856086,19.5645038 58.1675069,23.4519244 61.4325,28.86 C68.1871573,40.1201374 64.5939404,54.7207205 53.385,61.56 L53.385,61.56 Z" id="Shape" fill="#605D5A" fill-rule="nonzero"></path>
                <polygon id="Rectangle" fill="url(#linearGradient-1)" fill-rule="nonzero" transform="translate(71.151236, 71.078749) rotate(44.810000) translate(-71.151236, -71.078749) " points="54.5274863 66.4324994 87.7749863 66.4324994 87.7749863 75.7249994 54.5274863 75.7249994"></polygon>
                <path d="M68.091481,79.3897465 L97.288981,79.3897465 C98.945921,79.3897465 100.534997,80.0479633 101.706631,81.2195969 C102.878264,82.3912304 103.536481,83.9803065 103.536481,85.6372465 L103.536481,85.6372465 C103.536481,87.2941865 102.878264,88.8832626 101.706631,90.0548961 C100.534997,91.2265296 98.945921,91.8847465 97.288981,91.8847465 L68.091481,91.8847465 L68.091481,79.3897465 Z" id="Path" fill="#605D5A" fill-rule="nonzero" transform="translate(85.813981, 85.637246) rotate(44.810000) translate(-85.813981, -85.637246) "></path>
                <polygon id="Rectangle" fill="#797673" fill-rule="nonzero" transform="translate(67.325451, 67.271708) rotate(-45.000000) translate(-67.325451, -67.271708) " points="62.6792008 66.5217082 71.9717008 66.5217082 71.9717008 68.0217082 62.6792008 68.0217082"></polygon>
                <polygon id="Rectangle" fill="#797673" fill-rule="nonzero" transform="translate(70.135123, 70.089512) rotate(-45.000000) translate(-70.135123, -70.089512) " points="65.4888731 69.3395115 74.7813731 69.3395115 74.7813731 70.8395115 65.4888731 70.8395115"></polygon>
                <circle id="Oval" fill="#B3AFAB" fill-rule="nonzero" cx="53.2425" cy="32.2425" r="4.0875"></circle>
                <circle id="Oval" fill="#B3AFAB" fill-rule="nonzero" cx="58.23" cy="41.8875" r="2.865"></circle>
                <circle id="Oval" fill="#33312D" fill-rule="nonzero" cx="94.6575" cy="14.175" r="10.6575"></circle>
                <circle id="Oval" fill="#33312D" fill-rule="nonzero" cx="20.7825" cy="95.7375" r="10.6575"></circle>
                <circle id="Oval" fill="#33312D" fill-rule="nonzero" cx="11.0775" cy="85.9725" r="8.3925"></circle>
                <path d="M10.23,94.32 C10.5075,94.32 10.7925,94.3575537 11.0775,94.3575537 C13.3072237,94.3654713 15.4484651,93.4858141 17.0286417,91.912673 C18.6088183,90.3395319 19.4980216,88.202237 19.5000017,85.9725 C19.5001836,85.7068584 19.4851591,85.4414241 19.455,85.1775 C14.6625395,85.780414 10.8759407,89.5331489 10.23,94.32 Z" id="Path" fill="#605D5A" fill-rule="nonzero"></path>
            </g>
        </g>
    </g>
</svg>